<?xml version="1.0" encoding="UTF-8"?>
<svg version="1.1" xmlns="http://www.w3.org/2000/svg" width="174" height="80">
<path d="M0 0 C5.28 0 10.56 0 16 0 C16 0.66 16 1.32 16 2 C15.01 2.33 14.02 2.66 13 3 C13 5.64 13 8.28 13 11 C16.57410797 8.31941902 19.31941902 5.57410797 22 2 C20.68 2 19.36 2 18 2 C18 1.34 18 0.68 18 0 C22.29 0 26.58 0 31 0 C31 0.66 31 1.32 31 2 C29.700625 2.5259375 29.700625 2.5259375 28.375 3.0625 C24.26931773 5.41946575 21.86208497 8.29552831 19 12 C19.495 12.61875 19.99 13.2375 20.5 13.875 C22 16 22 16 22 18 C22.66 18 23.32 18 24 18 C24.99 19.98 25.98 21.96 27 24 C27.18175781 23.39671875 27.36351563 22.7934375 27.55078125 22.171875 C30.65472313 12.3029316 30.65472313 12.3029316 35.25 9.75 C39.70632168 8.53463954 43.62223075 8.54074358 48 10 C50.22818441 10.06937062 52.45834524 10.08457084 54.6875 10.0625 C55.86699219 10.05347656 57.04648437 10.04445313 58.26171875 10.03515625 C59.16535156 10.02355469 60.06898437 10.01195312 61 10 C61 10.66 61 11.32 61 12 C59.68 12 58.36 12 57 12 C58.98 15.96 60.96 19.92 63 24 C64.65 20.04 66.3 16.08 68 12 C66.35 12 64.7 12 63 12 C63.33 11.34 63.66 10.68 64 10 C64.83144531 10.01160156 65.66289063 10.02320313 66.51953125 10.03515625 C68.14955078 10.04869141 68.14955078 10.04869141 69.8125 10.0625 C71.43091797 10.07990234 71.43091797 10.07990234 73.08203125 10.09765625 C76.06512169 10.13624766 76.06512169 10.13624766 79 9 C85.32553606 8.76998051 85.32553606 8.76998051 88.02734375 9.69140625 C88.67832031 9.79324219 89.32929687 9.89507812 90 10 C91.71547848 8.81480091 91.71547848 8.81480091 93.125 7.0625 C94.04956579 6.01098606 95.00282632 4.98292834 96 4 C96.66 4 97.32 4 98 4 C99 7 99 7 98 10 C99.65 10 101.3 10 103 10 C103 10.99 103 11.98 103 13 C101.35 13 99.7 13 98 13 C98.495 20.92 98.495 20.92 99 29 C99.99 28.505 99.99 28.505 101 28 C100.78730469 27.03900391 100.78730469 27.03900391 100.5703125 26.05859375 C99.40134187 19.17807367 99.40134187 19.17807367 101.09375 15.84765625 C103.87924073 12.48659217 106.61192207 9.81638659 111 9 C114.90577277 9.08429725 118.59046372 9.22287924 122.0546875 11.1328125 C122.69664063 11.41898438 123.33859375 11.70515625 124 12 C127.57831151 10.66881935 127.57831151 10.66881935 131 9 C131.99 9 132.98 9 134 9 C134.33 9.66 134.66 10.32 135 11 C135.7425 10.4740625 135.7425 10.4740625 136.5 9.9375 C140.11629503 8.58138936 143.40986048 8.69783874 147 10 C149.5 13.0625 149.5 13.0625 151 16 C151.33 15.01 151.66 14.02 152 13 C155.92854676 9.91328469 159.85242417 8.6541581 164.8125 9.125 C168.01307575 9.58950834 169.19031724 10.12687816 172 12 C172 12.66 172 13.32 172 14 C172.66 14 173.32 14 174 14 C174 16.31 174 18.62 174 21 C168.39 21 162.78 21 157 21 C158.53312767 25.31608796 158.53312767 25.31608796 161 29 C166.32498418 29.60628055 166.32498418 29.60628055 170.875 27.5 C171.431875 26.7575 171.431875 26.7575 172 26 C172.66 26 173.32 26 174 26 C173.9375 28.3125 173.9375 28.3125 173 31 C167.70089702 34.20154138 163.0838562 34.37248099 157 34 C157 33.34 157 32.68 157 32 C156.43152344 32.15210938 155.86304688 32.30421875 155.27734375 32.4609375 C149.87090371 33.74067802 144.41338349 34.57162747 139 33 C139 32.34 139 31.68 139 31 C139.99 30.34 140.98 29.68 142 29 C142.22137393 26.37302936 142.28162025 23.99106036 142.1875 21.375 C142.17396484 20.66859375 142.16042969 19.9621875 142.14648438 19.234375 C142.1111104 17.48925872 142.05730221 15.74453392 142 14 C140.00045254 13.95745644 137.99958364 13.95919217 136 14 C134.64055064 15.12856201 134.64055064 15.12856201 134.9375 18.08984375 C134.97912438 20.65234444 135.02079096 23.21484444 135.0625 25.77734375 C135 29 135 29 134 31 C135.32 31 136.64 31 138 31 C138 31.66 138 32.32 138 33 C136.04235617 33.19456705 134.08384679 33.38044247 132.125 33.5625 C130.48917969 33.71912109 130.48917969 33.71912109 128.8203125 33.87890625 C126 34 126 34 124 33 C124 32.34 124 31.68 124 31 C122.989375 31.495 121.97875 31.99 120.9375 32.5 C117.14864893 34.10415065 114.14060955 34.45170286 110 34 C106.6875 32.5 106.6875 32.5 104 31 C103.34 31 102.68 31 102 31 C102 31.66 102 32.32 102 33 C99.36 33.33 96.72 33.66 94 34 C93.01 32.35 92.02 30.7 91 29 C90.319375 29.804375 89.63875 30.60875 88.9375 31.4375 C85.38091948 34.54004896 83.68933855 35 79 35 C76.07127482 34.40485798 73.52746043 33.61732869 71 32 C69.9375 29.4375 69.9375 29.4375 70 27 C70.33 26.34 70.66 25.68 71 25 C71.99 25 72.98 25 74 25 C74.474375 25.804375 74.94875 26.60875 75.4375 27.4375 C76.73113959 30.11014756 76.73113959 30.11014756 79 30.875 C81.2091751 31.13849118 81.2091751 31.13849118 84 30 C84.2113453 27.6087705 84.2113453 27.6087705 83 25 C80.83699695 23.74773508 78.66409454 22.8662568 76.32421875 21.9921875 C73.88227014 20.94974221 72.08981574 19.62024677 70 18 C68.32742736 21.78908876 66.66294885 25.58167885 65 29.375 C64.52304688 30.45523437 64.04609375 31.53546875 63.5546875 32.6484375 C63.10351562 33.6796875 62.65234375 34.7109375 62.1875 35.7734375 C61.55908203 37.20308838 61.55908203 37.20308838 60.91796875 38.66162109 C59.87819406 40.89159667 59.87819406 40.89159667 60 43 C57.6739143 43.38063221 55.33944736 43.71269945 53 44 C52 43 52 43 51.9375 40.4375 C51.958125 39.633125 51.97875 38.82875 52 38 C53.98 38 55.96 38 58 38 C58.98445869 34.00999617 58.98445869 34.00999617 58.3125 30.0625 C57.879375 29.381875 57.44625 28.70125 57 28 C56.28804963 26.75205658 55.57997585 25.50189662 54.875 24.25 C54.25625 23.1775 53.6375 22.105 53 21 C52.10796875 21.0721875 51.2159375 21.144375 50.296875 21.21875 C48.54117188 21.35796875 48.54117188 21.35796875 46.75 21.5 C45.58984375 21.5928125 44.4296875 21.685625 43.234375 21.78125 C40.82731342 21.94404644 38.41256049 22 36 22 C36.99 24.31 37.98 26.62 39 29 C40.45742463 29.08096803 41.91612807 29.13917774 43.375 29.1875 C44.59316406 29.23970703 44.59316406 29.23970703 45.8359375 29.29296875 C46.55007812 29.19628906 47.26421875 29.09960938 48 29 C48.66 28.01 49.32 27.02 50 26 C50.66 26 51.32 26 52 26 C52.495 27.485 52.495 27.485 53 29 C51.75443908 29.81928886 50.50333365 30.63015186 49.25 31.4375 C48.55390625 31.88996094 47.8578125 32.34242187 47.140625 32.80859375 C45.0035068 33.99804822 43.42334753 34.69827886 41 35 C39.1328125 34.40625 39.1328125 34.40625 37.125 33.5 C30.82058347 31.16620427 24.54571465 32.22717736 18 33 C18.33 31.68 18.66 30.36 19 29 C19.66 29 20.32 29 21 29 C20.65066406 28.52949219 20.30132813 28.05898438 19.94140625 27.57421875 C19.48636719 26.95160156 19.03132813 26.32898438 18.5625 25.6875 C18.11003906 25.07261719 17.65757813 24.45773438 17.19140625 23.82421875 C16 22 16 22 15 19 C14.34 19 13.68 19 13 19 C13.020625 20.27875 13.04125 21.5575 13.0625 22.875 C13.125 26.75 13.125 26.75 12 29 C12.99 29.33 13.98 29.66 15 30 C15 30.66 15 31.32 15 32 C10.05 32 5.1 32 0 32 C0.495 30.515 0.495 30.515 1 29 C1.99 29 2.98 29 4 29 C3.67 20.42 3.34 11.84 3 3 C2.01 2.67 1.02 2.34 0 2 C0 1.34 0 0.68 0 0 Z M37.125 13.25 C35.63949494 15.21404988 35.63949494 15.21404988 36 19 C40.455 18.505 40.455 18.505 45 18 C46.39770584 14.25308553 46.39770584 14.25308553 45 12 C40.83296056 11.63982924 40.83296056 11.63982924 37.125 13.25 Z M77 12 C77.02446895 14.42446391 77.02446895 14.42446391 78 17 C80.74310972 18.69863316 80.74310972 18.69863316 84.0625 19.8125 C85.16722656 20.23144531 86.27195312 20.65039062 87.41015625 21.08203125 C88.26480469 21.38496094 89.11945313 21.68789063 90 22 C90.67958603 19.60280568 90.67958603 19.60280568 91 17 C89.0745356 14.7763932 89.0745356 14.7763932 86 14 C85.34 13.34 84.68 12.68 84 12 C80.41656024 11.83322718 80.41656024 11.83322718 77 12 Z M111 12 C107.44906138 16.01369392 107.4514115 19.16598747 107.5625 24.359375 C108.22681785 28.36900774 109.77340721 29.66072023 113 32 C116.0825458 31.10768411 117.6297164 30.61713933 119.3125 27.8125 C120.63133658 22.41725943 120.42965649 18.01116652 118 13 C115.69 12.67 113.38 12.34 111 12 Z M158 14 C157.83312552 16.58354218 157.83312552 16.58354218 158 19 C162.455 18.505 162.455 18.505 167 18 C166.67 16.02 166.34 14.04 166 12 C161.50695418 11.57496554 161.50695418 11.57496554 158 14 Z M90 13 C91 15 91 15 91 15 Z M126 15 C127 18 127 18 127 18 Z M12 16 C12.33 16.66 12.66 17.32 13 18 C13.33 17.34 13.66 16.68 14 16 C13.34 16 12.68 16 12 16 Z M127 18 C128 20 128 20 128 20 Z M149 20 C149 21.98 149 23.96 149 26 C149.33 26 149.66 26 150 26 C150 24.02 150 22.04 150 20 C149.67 20 149.34 20 149 20 Z M127 23 C128 25 128 25 128 25 Z M91 24 C92 26 92 26 92 26 Z M28 26 C29 28 29 28 29 28 Z M126 26 C125.34 27.65 124.68 29.3 124 31 C124.99 31 125.98 31 127 31 C127 29.35 127 27.7 127 26 C126.67 26 126.34 26 126 26 Z M150 26 C150.33 27.65 150.66 29.3 151 31 C151.66 30.67 152.32 30.34 153 30 C152.01 28.68 151.02 27.36 150 26 Z " fill="#0053A5" transform="translate(0,0)"/>
<path d="M0 0 C0 0.66 0 1.32 0 2 C0.9075 1.67 1.815 1.34 2.75 1 C6 0 6 0 10 0 C10.33 6.6 10.66 13.2 11 20 C12.32 18.02 13.64 16.04 15 14 C19.39420747 11.07052836 22.76914571 10.52446779 28 11 C31.86165366 12.11558883 32.71497149 12.57245724 35 16 C35.4125 15.54625 35.825 15.0925 36.25 14.625 C39.15490418 11.92758897 41.13092698 11.06952584 45.125 10.75 C49.13424468 11.00866095 52.85275481 11.6875725 56.765625 12.5625 C59.46747205 13.09153299 61.30476618 13.39727647 63.75 12 C67.02646236 10.5437945 69.44776155 10.63252706 73 11 C77.36426478 13.05861546 78.69806222 14.17653333 80.375 18.75 C80.58125 19.8225 80.7875 20.895 81 22 C79.00383446 23.99616554 75.18298037 23.40983427 72.4375 23.5625 C71.37112305 23.62727539 71.37112305 23.62727539 70.28320312 23.69335938 C68.52238088 23.79971777 66.7612168 23.90038846 65 24 C64.505 26.475 64.505 26.475 64 29 C64.66 29 65.32 29 66 29 C66.33 29.66 66.66 30.32 67 31 C72.32065759 31.56211314 72.32065759 31.56211314 76.875 29.5 C77.431875 28.7575 77.431875 28.7575 78 28 C78.66 28 79.32 28 80 28 C80.82638376 30.89234315 81 32.88742431 81 36 C80.01 36 79.02 36 78 36 C78 35.34 78 34.68 78 34 C77.41992188 34.23976562 76.83984375 34.47953125 76.2421875 34.7265625 C69.82563238 37.1618887 69.82563238 37.1618887 65.8125 36.375 C64.884375 35.92125 63.95625 35.4675 63 35 C61.88625 34.46375 60.7725 33.9275 59.625 33.375 C58.75875 32.92125 57.8925 32.4675 57 32 C57.515625 32.53625 58.03125 33.0725 58.5625 33.625 C60 36 60 36 60.0625 39.0625 C59 42 59 42 56.48046875 43.66015625 C52.2302479 45.29632432 48.75474028 45.44454145 44.25 45.375 C43.48300781 45.38660156 42.71601562 45.39820313 41.92578125 45.41015625 C39.703125 45.3984375 39.703125 45.3984375 36 45 C33.8480563 41.77208445 33.79913557 40.71599191 34 37 C35.65 36.34 37.3 35.68 39 35 C39 34.34 39 33.68 39 33 C37.35 32.67 35.7 32.34 34 32 C33.505 32.99 33.505 32.99 33 34 C29.26964244 35.75083832 25.05464339 37.55000014 20.95703125 36.453125 C20.37308594 36.15921875 19.78914063 35.8653125 19.1875 35.5625 C18.135625 35.046875 17.08375 34.53125 16 34 C14.31855158 34.6284532 12.6527164 35.29946398 11 36 C8.50463867 36.22705078 8.50463867 36.22705078 5.91796875 36.1953125 C4.98662109 36.18886719 4.05527344 36.18242188 3.09570312 36.17578125 C2.13599609 36.15902344 1.17628906 36.14226562 0.1875 36.125 C-0.79154297 36.11597656 -1.77058594 36.10695312 -2.77929688 36.09765625 C-5.18645061 36.07417182 -7.59309743 36.0413284 -10 36 C-10.33 35.01 -10.66 34.02 -11 33 C-11.47308594 33.32355469 -11.94617188 33.64710937 -12.43359375 33.98046875 C-15.49915279 35.82697507 -17.75375565 37.1545099 -21.39453125 36.703125 C-25.37342732 35.40981881 -28.87579369 33.8525362 -32 31 C-32.79664063 31.95132813 -32.79664063 31.95132813 -33.609375 32.921875 C-36.52969282 35.46045193 -38.44811752 35.75410228 -42.25 36.25 C-43.32765625 36.39953125 -44.4053125 36.5490625 -45.515625 36.703125 C-46.74539062 36.85007812 -46.74539062 36.85007812 -48 37 C-48 36.34 -48 35.68 -48 35 C-48.73863281 34.89945313 -49.47726563 34.79890625 -50.23828125 34.6953125 C-54.8803739 33.52658196 -57.86792761 30.51831451 -61 27 C-63.42596476 21.66287753 -62.98318368 17.60414699 -62 12 C-61.34 12 -60.68 12 -60 12 C-59.67 10.68 -59.34 9.36 -59 8 C-58.34 8 -57.68 8 -57 8 C-57 7.34 -57 6.68 -57 6 C-50.6374993 3.11886761 -44.98639472 2.1646702 -38 3 C-35.671875 4.01953125 -35.671875 4.01953125 -34 5 C-34 7.31 -34 9.62 -34 12 C-35.32 12 -36.64 12 -38 12 C-38.66 10.35 -39.32 8.7 -40 7 C-40.66 7 -41.32 7 -42 7 C-42 6.34 -42 5.68 -42 5 C-43.31722179 5.42307123 -44.62872664 5.86397486 -45.9375 6.3125 C-46.66839844 6.55613281 -47.39929688 6.79976562 -48.15234375 7.05078125 C-50.35932024 7.91240441 -50.35932024 7.91240441 -51 11 C-51.66 11 -52.32 11 -53 11 C-52.93950287 13.37753738 -52.85232887 15.74919061 -52.75 18.125 C-52.73582031 18.79015625 -52.72164062 19.4553125 -52.70703125 20.140625 C-52.46159285 25.14756827 -51.24703548 28.19333183 -48 32 C-44.45678447 32.9168022 -44.45678447 32.9168022 -41 32 C-38.8865542 29.39341685 -38.0581347 27.1744041 -37 24 C-36.01 24 -35.02 24 -34 24 C-34.20625 23.4225 -34.4125 22.845 -34.625 22.25 C-35.08661261 19.48032433 -34.42944945 18.35438733 -33 16 C-32.34 16 -31.68 16 -31 16 C-31 15.34 -31 14.68 -31 14 C-26.09269046 11.59641982 -22.57747649 10.31504675 -17 11 C-14.14351618 12.04243774 -11.46286357 13.20391169 -9 15 C-8.505 16.485 -8.505 16.485 -8 18 C-7.67 13.38 -7.34 8.76 -7 4 C-7.99 4 -8.98 4 -10 4 C-10 3.34 -10 2.68 -10 2 C-3.375 0 -3.375 0 0 0 Z M0 4 C0 13.24 0 22.48 0 32 C1.32 32 2.64 32 4 32 C4 23.09 4 14.18 4 5 C2.68 4.67 1.36 4.34 0 4 Z M-21 13 C-24.31335315 15.71864874 -26.2943618 17.75528786 -26.9375 22 C-27.18530858 25.443235 -26.64083297 27.91137323 -25 31 C-24.34 31 -23.68 31 -23 31 C-23 31.66 -23 32.32 -23 33 C-20.62625139 33.33425735 -20.62625139 33.33425735 -18 33 C-15.49434017 30.76280373 -14.98476298 28.942317 -14.125 25.6875 C-13.97565269 21.28175436 -14.83019786 18.81585893 -17 15 C-19.0351761 13.5181036 -19.0351761 13.5181036 -21 13 Z M21 14 C19.35179805 16.60242414 19 17.86248779 19 21 C23.455 20.505 23.455 20.505 28 20 C28 18.35 28 16.7 28 15 C24.73914061 13.02948211 24.73914061 13.02948211 21 14 Z M45 13 C43.33358994 13.990755 43.33358994 13.990755 42 16 C41.72654521 18.71846235 41.86508715 21.25677199 42 24 C44.475 24.99 44.475 24.99 47 26 C49.60691842 23.39308158 49.70416963 21.62392206 50 18 C49.34 17.01 48.68 16.02 48 15 C47.34 15 46.68 15 46 15 C45.67 14.34 45.34 13.68 45 13 Z M66 14 C63.63019987 16.95377498 63.63019987 16.95377498 64 21 C68.455 20.505 68.455 20.505 73 20 C73.33 19.01 73.66 18.02 74 17 C73.34 16.01 72.68 15.02 72 14 C69 13.5 69 13.5 66 14 Z M56 15 C56 16.65 56 18.3 56 20 C56.99 19.01 57.98 18.02 59 17 C58.67 16.34 58.34 15.68 58 15 C57.34 15 56.68 15 56 15 Z M10 23 C10 25.97 10 28.94 10 32 C11.32 32.33 12.64 32.66 14 33 C14 32.34 14 31.68 14 31 C13.34 31 12.68 31 12 31 C11.67 28.36 11.34 25.72 11 23 C10.67 23 10.34 23 10 23 Z M34 22 C33.01 22.33 32.02 22.66 31 23 C28.77181559 23.06937062 26.54165476 23.08457084 24.3125 23.0625 C22.54326172 23.04896484 22.54326172 23.04896484 20.73828125 23.03515625 C19.83464844 23.02355469 18.93101563 23.01195313 18 23 C19.12697043 27.96911366 19.12697043 27.96911366 22 32 C24.85714706 32.2267577 27.20436173 32.39358882 30 32 C31.64594139 30.60411246 31.64594139 30.60411246 33 29 C36.1875 28.3125 36.1875 28.3125 39 28 C37.63016497 24.83884224 37.0109362 24.0072908 34 22 Z M54 24 C54 24.66 54 25.32 54 26 C49.71 26.66 45.42 27.32 41 28 C41 28.66 41 29.32 41 30 C45.95 30.33 50.9 30.66 56 31 C57.34513424 27.14061025 57.34513424 27.14061025 56 24 C55.34 24 54.68 24 54 24 Z M-8 28 C-9.485 30.475 -9.485 30.475 -11 33 C-9.68 32.67 -8.36 32.34 -7 32 C-7.33 30.68 -7.66 29.36 -8 28 Z M39 37 C39.16507646 39.57540213 39.16507646 39.57540213 40 42 C42.32686453 43.16343227 43.84721413 43.19895988 46.4375 43.25 C47.61119141 43.28867188 47.61119141 43.28867188 48.80859375 43.328125 C51.47931509 42.92823089 52.31977439 42.05300878 54 40 C52.6910428 36.87802522 52.6910428 36.87802522 50 35 C48.50350638 34.87994547 47.00125207 34.82468549 45.5 34.8125 C44.7059375 34.79832031 43.911875 34.78414062 43.09375 34.76953125 C40.77966683 34.80333697 40.77966683 34.80333697 39 37 Z " fill="#0053A5" transform="translate(78,35)"/>
<path d="M0 0 C35.64 0 71.28 0 108 0 C108 1.32 108 2.64 108 4 C72.03 3.67 36.06 3.34 -1 3 C-0.67 2.01 -0.34 1.02 0 0 Z " fill="#F69237" transform="translate(2,73)"/>
<path d="M0 0 C46.2 0 92.4 0 140 0 C139.67 0.99 139.34 1.98 139 3 C70.69 2.505 70.69 2.505 1 2 C0.67 1.34 0.34 0.68 0 0 Z " fill="#F69238" transform="translate(33,1)"/>
<path d="M0 0 C10.89 0 21.78 0 33 0 C33 0.99 33 1.98 33 3 C26.18625765 3.84046161 19.42038118 4.10840501 12.5625 4.125 C11.39098389 4.13176758 11.39098389 4.13176758 10.19580078 4.13867188 C6.62768898 4.12939803 3.43206532 3.96229703 0 3 C0 2.01 0 1.02 0 0 Z " fill="#DF8D41" transform="translate(139,73)"/>
</svg>
